<svg xmlns="http://www.w3.org/2000/svg" viewBox="0 0 972.14 994"><defs><style>.cls-1{fill:#fff;}</style></defs><g id="Слой_2" data-name="Слой 2"><g id="Layer_1" data-name="Layer 1"><path class="cls-1" d="M610.1,116.78A348.54,348.54,0,0,0,349.41,0C156.44,0,0,156.44,0,349.41A347.7,347.7,0,0,0,53.38,535.07C155.57,315.53,362.57,154.63,610.1,116.78Z"/><path class="cls-1" d="M798,163.91a347.83,347.83,0,0,0-187.39-47c138.6,198.52,173.92,458.25,82.51,691.32C452.45,828.88,210.37,730.05,54.21,535A348.51,348.51,0,0,0,83.37,819.19c96.47,167.13,310.16,224.42,477.29,128a347.79,347.79,0,0,0,134.12-139l-.75.06A348.49,348.49,0,0,0,924.91,641.48C1021.74,474.56,964.93,260.75,798,163.91Z"/></g></g></svg>