<?xml version="1.0" encoding="utf-8"?>
<!-- Generator: Adobe Illustrator 25.0.1, SVG Export Plug-In . SVG Version: 6.00 Build 0)  -->
<svg version="1.1" id="Слой_1" xmlns="http://www.w3.org/2000/svg" xmlns:xlink="http://www.w3.org/1999/xlink" x="0px" y="0px"
	 viewBox="0 0 48 48" style="enable-background:new 0 0 48 48;" xml:space="preserve">
<style type="text/css">
	.st0{fill:#FFFFFF;}
</style>
<path class="st0" d="M17,5C10.4,5,5,10.4,5,17c0,1.8,0.4,3.5,1.1,5C6.1,22.6,6,23.3,6,24c0,9.9,8.1,18,18,18c0.7,0,1.4-0.1,2-0.1
	c1.5,0.7,3.2,1.1,5,1.1c6.6,0,12-5.4,12-12c0-1.8-0.4-3.5-1.1-5c0.1-0.6,0.1-1.3,0.1-2c0-9.9-8.1-18-18-18c-0.7,0-1.4,0.1-2,0.1
	C20.5,5.4,18.8,5,17,5z M17,8c1.5,0,2.9,0.4,4.1,1c0.3,0.1,0.6,0.2,0.9,0.2C22.7,9.1,23.3,9,24,9c8.3,0,15,6.7,15,15
	c0,0.7-0.1,1.3-0.2,2c0,0.3,0,0.6,0.2,0.9c0.6,1.2,1,2.6,1,4.1c0,5-4,9-9,9c-1.5,0-2.9-0.4-4.1-1c-0.3-0.1-0.6-0.2-0.9-0.2
	c-0.7,0.1-1.3,0.2-2,0.2c-8.3,0-15-6.7-15-15c0-0.7,0.1-1.3,0.2-2c0-0.3,0-0.6-0.2-0.9c-0.6-1.2-1-2.6-1-4.1C8,12,12,8,17,8z
	 M24.7,13.8c-7.5,0-7.8,4.8-7.8,5.8c0,6,10.1,5.7,10.1,9.3c0,2.2-2.4,2.3-3.4,2.3c-2,0-4.1-1.5-4.8-1.5S17,30.3,17,31.3
	c0,2.5,4.5,3.1,5.6,3.1c1.1,0,8.6,0.3,8.6-5.8c0-6.2-10.1-6.2-10.1-9.3c0-0.3-0.1-2.4,3.4-2.4c2.5,0,3,1.1,4.3,1.1
	c0.6,0,1.6-0.4,1.6-1.8C30.4,14.4,26.7,13.8,24.7,13.8z"/>
</svg>
